<?xml version="1.0" standalone="no"?>
<!DOCTYPE svg PUBLIC "-//W3C//DTD SVG 20010904//EN"
 "http://www.w3.org/TR/2001/REC-SVG-20010904/DTD/svg10.dtd">
<svg version="1.0" xmlns="http://www.w3.org/2000/svg"
 width="1280.000000pt" height="1234.000000pt" viewBox="0 0 1280.000000 1234.000000"
 preserveAspectRatio="xMidYMid meet">
<g transform="translate(0.000000,1234.000000) scale(0.100000,-0.100000)"
fill="#000000" stroke="none">
<path d="M6205 12330 c-49 -5 -164 -13 -255 -20 -1064 -75 -2009 -370 -2570
-804 -648 -500 -1079 -1251 -1192 -2076 -20 -144 -17 -581 5 -750 101 -772
370 -1416 788 -1891 l76 -87 -39 -193 c-38 -188 -39 -201 -41 -409 -1 -161 3
-243 16 -326 46 -295 144 -537 282 -699 26 -30 45 -58 41 -62 -7 -8 -142 56
-626 297 -564 280 -612 307 -696 395 -64 66 -82 95 -172 273 -108 213 -163
295 -251 381 -118 113 -240 183 -386 221 -138 36 -252 8 -355 -87 -154 -142
-215 -321 -242 -710 l-12 -175 -85 -76 c-243 -218 -348 -334 -415 -462 -36
-69 -76 -191 -76 -231 1 -34 36 -135 64 -184 75 -128 273 -224 546 -266 103
-16 318 -5 465 22 91 17 157 23 275 23 l155 1 360 -171 c794 -378 965 -459
1335 -639 212 -102 469 -227 573 -277 l187 -91 0 -118 0 -117 -197 -105 c-476
-252 -853 -439 -1118 -554 -199 -87 -419 -172 -472 -184 -110 -23 -214 -16
-373 27 -139 37 -151 38 -305 38 -140 0 -173 -3 -265 -26 -179 -45 -210 -60
-283 -137 -75 -80 -112 -151 -129 -250 -22 -128 21 -276 109 -381 21 -25 134
-137 251 -249 116 -112 212 -206 212 -210 0 -3 7 -45 15 -94 8 -48 24 -183 35
-300 23 -220 37 -281 86 -365 37 -63 109 -138 161 -169 51 -30 156 -63 200
-63 61 0 215 58 293 112 121 82 281 273 408 488 89 151 184 296 224 341 22 26
1546 839 1572 839 6 0 56 -49 109 -110 230 -260 463 -421 753 -518 381 -128
593 -162 1079 -169 556 -8 810 28 1212 173 314 113 496 234 751 499 l131 137
763 -397 c723 -375 766 -399 826 -458 84 -82 149 -180 231 -351 84 -175 135
-243 265 -353 134 -115 224 -171 324 -205 98 -33 118 -34 196 -8 85 29 133 60
199 129 117 122 169 299 202 685 9 99 19 185 23 191 4 7 75 70 157 141 253
216 369 351 409 478 27 84 19 202 -18 274 -73 144 -222 242 -456 302 -184 47
-349 44 -562 -11 -153 -40 -278 -44 -373 -12 -78 27 -1748 801 -1756 815 -10
17 -5 246 6 257 17 16 2324 1102 2420 1139 134 51 219 54 395 12 74 -18 169
-36 210 -40 89 -8 359 13 463 36 171 38 330 147 391 268 31 61 66 184 66 234
0 96 -182 337 -451 596 l-126 121 -6 125 c-10 203 -70 472 -140 632 -34 76
-120 161 -201 199 -200 93 -420 18 -677 -232 -97 -96 -138 -160 -222 -349 -75
-168 -127 -256 -201 -338 -44 -48 -73 -65 -365 -208 -743 -366 -871 -427 -877
-421 -4 4 6 23 22 43 130 163 205 327 258 565 39 176 49 300 43 508 -5 165
-10 208 -46 386 -23 110 -41 208 -41 218 0 10 49 73 110 140 443 493 683 1042
751 1722 22 226 3 659 -41 920 -83 486 -294 969 -602 1376 -209 277 -535 585
-797 754 -425 274 -1505 583 -2221 635 -80 6 -201 15 -270 20 -141 11 -361 11
-495 0z m840 -324 c682 -81 1518 -317 1910 -538 256 -145 612 -475 826 -768
252 -343 417 -722 504 -1151 68 -343 76 -791 19 -1124 -73 -423 -242 -810
-504 -1155 -67 -88 -87 -107 -100 -94 -15 15 -40 293 -40 444 0 270 19 380
115 656 36 104 77 231 90 282 58 223 72 692 25 837 -12 39 -33 91 -45 116 -29
57 -101 149 -118 149 -6 1 -55 -45 -108 -102 l-97 -102 34 -49 c53 -76 66
-136 65 -299 0 -280 -29 -461 -106 -673 -100 -274 -121 -356 -140 -555 -36
-361 -12 -607 131 -1332 52 -269 54 -282 54 -445 0 -272 -41 -476 -132 -663
-73 -152 -132 -207 -308 -293 -74 -37 -227 -98 -340 -137 -233 -81 -360 -139
-509 -234 -244 -156 -359 -275 -451 -468 -52 -109 -79 -218 -88 -353 l-7 -110
-70 -23 c-278 -90 -646 -125 -1310 -126 -385 0 -501 3 -640 17 -192 21 -392
55 -510 89 l-80 23 -7 80 c-24 259 -71 392 -204 570 -67 91 -124 145 -258 243
-139 102 -271 171 -416 217 -390 123 -504 170 -629 254 -154 105 -253 297
-308 596 -13 65 -17 146 -17 295 l0 205 56 280 c107 531 127 672 135 956 6
214 -6 402 -33 534 -8 39 -50 176 -94 305 -91 271 -104 330 -121 534 -22 276
-3 421 66 512 l26 34 -97 105 c-53 58 -101 105 -105 105 -14 0 -89 -95 -119
-152 -59 -110 -73 -190 -73 -408 -1 -213 14 -378 44 -510 11 -47 55 -191 98
-320 43 -129 84 -264 90 -300 30 -174 31 -505 1 -720 -18 -126 -21 -140 -30
-140 -15 0 -114 139 -181 251 -226 380 -375 825 -446 1329 -13 93 -17 194 -18
400 0 304 8 376 70 629 180 731 687 1406 1320 1758 530 294 1307 493 2170 553
190 13 858 4 1010 -14z m4728 -5705 c28 -25 40 -50 70 -148 55 -178 69 -261
76 -453 4 -97 12 -184 18 -195 6 -12 63 -70 125 -130 161 -156 309 -314 374
-400 52 -69 56 -78 49 -112 -10 -57 -74 -113 -160 -141 -77 -26 -248 -46 -375
-46 -62 1 -120 10 -210 33 -210 54 -352 52 -529 -5 -41 -14 -594 -270 -1230
-570 -636 -299 -1162 -542 -1170 -539 -29 11 12 274 75 484 42 140 112 335
128 356 6 8 427 219 936 469 912 447 926 455 998 521 120 111 196 226 286 430
97 218 114 243 248 356 143 121 226 147 291 90z m-10567 -46 c78 -38 187 -132
236 -203 17 -25 65 -114 106 -196 97 -196 163 -297 255 -388 64 -63 98 -86
253 -170 343 -185 1682 -838 1717 -838 25 0 124 -272 181 -495 26 -103 56
-289 56 -344 0 -18 -6 -34 -14 -37 -8 -3 -79 26 -158 64 -78 38 -298 145 -488
237 -961 466 -1720 821 -1790 837 -99 23 -352 16 -526 -15 -242 -43 -424 -34
-595 30 -82 30 -129 70 -129 107 0 69 101 209 248 344 185 168 283 266 298
294 9 18 18 89 24 205 21 357 60 511 152 588 39 33 72 29 174 -20z m7510
-1753 c-119 -311 -185 -562 -209 -797 -9 -95 -8 -123 6 -196 58 -287 39 -690
-48 -995 -60 -210 -225 -481 -413 -676 -223 -232 -427 -350 -787 -458 -265
-80 -449 -101 -860 -101 -452 0 -672 30 -1009 138 -207 66 -325 129 -478 255
-248 204 -476 532 -562 807 -91 290 -118 677 -69 971 10 58 17 144 16 193 -4
217 -83 535 -224 897 -27 68 -45 128 -41 132 14 14 111 -21 127 -45 27 -41
146 -350 212 -547 111 -337 165 -571 218 -954 19 -138 31 -197 45 -215 10 -14
54 -61 97 -103 379 -372 888 -528 1733 -532 316 -1 400 7 655 60 255 54 554
173 738 293 99 65 242 203 283 273 29 48 35 73 63 279 61 434 155 796 316
1209 99 253 92 243 171 272 38 15 73 23 77 18 5 -4 -21 -85 -57 -178z m-4217
-46 c192 -144 290 -313 307 -532 l7 -80 49 -28 49 -27 -7 -452 c-4 -253 -11
-456 -16 -462 -6 -6 -31 13 -72 55 l-63 65 -22 165 c-58 430 -156 814 -312
1223 -27 71 -49 133 -49 138 0 22 35 4 129 -65z m3890 -27 c-46 -115 -162
-471 -199 -614 -53 -201 -84 -359 -119 -609 -25 -173 -34 -215 -54 -245 -38
-56 -87 -105 -96 -95 -5 5 -12 214 -16 464 -8 514 -16 461 74 510 l46 25 6 85
c15 202 106 361 283 492 46 35 83 55 88 50 5 -5 0 -31 -13 -63z m-3249 -722
l105 -33 3 -222 c2 -187 0 -223 -12 -228 -15 -6 -158 64 -202 99 l-27 20 5
187 c4 157 9 211 21 210 1 0 49 -15 107 -33z m2653 -49 c4 -46 7 -133 7 -195
0 -134 3 -130 -137 -201 -79 -40 -95 -45 -103 -32 -15 24 -13 437 3 447 18 12
178 61 203 62 19 1 22 -6 27 -81z m-2284 -29 c53 -7 102 -17 109 -22 18 -14
17 -490 -2 -506 -10 -8 -37 -4 -113 18 -159 45 -143 13 -143 285 0 128 3 236
7 240 4 4 16 5 27 2 11 -3 63 -11 115 -17z m1935 -1 c3 -13 6 -118 6 -235 0
-171 -3 -214 -14 -226 -19 -18 -168 -60 -221 -61 l-40 -1 -3 249 c-1 144 2
254 7 259 9 9 164 33 227 36 25 1 33 -4 38 -21z m-400 -24 c14 -5 16 -38 16
-265 l0 -259 -24 -10 c-13 -5 -63 -12 -110 -16 l-86 -7 0 271 0 272 23 5 c12
3 51 6 87 8 36 2 68 4 72 5 3 1 13 -1 22 -4z m-1081 -21 c4 -2 7 -123 7 -269
0 -239 -2 -265 -17 -271 -23 -9 -191 13 -208 27 -11 9 -12 59 -8 258 2 136 7
253 9 261 4 11 24 12 107 6 56 -4 105 -9 110 -12z m761 -9 c3 -9 6 -130 6
-269 0 -241 -1 -255 -19 -265 -11 -5 -69 -10 -130 -10 l-111 0 0 274 c0 210 3
276 13 279 6 3 62 6 123 6 93 1 113 -2 118 -15z m-366 -263 c2 -186 -1 -268
-9 -277 -15 -18 -239 -20 -257 -2 -13 13 -18 529 -5 542 4 3 66 5 137 4 l131
-3 3 -264z m1440 -334 l2 -216 -32 -25 c-45 -34 -189 -106 -200 -100 -4 3 -8
106 -8 229 l0 223 108 55 c59 30 112 54 117 52 6 -1 11 -84 13 -218z m-2661
166 c54 -27 101 -52 105 -58 4 -5 8 -106 8 -223 0 -189 -2 -213 -17 -219 -17
-7 -73 20 -165 79 l-58 38 0 208 c0 115 3 212 7 215 11 12 19 9 120 -40z m363
-136 l115 -33 3 -229 c1 -133 -2 -233 -7 -238 -12 -12 -233 57 -251 78 -16 20
-3 455 14 455 6 -1 63 -15 126 -33z m1945 -202 l0 -230 -110 -37 c-167 -56
-155 -63 -155 95 0 72 -3 175 -6 227 -3 52 -1 101 3 107 10 14 216 71 248 69
19 -1 20 -8 20 -231z m-387 143 c17 -17 17 -461 0 -476 -15 -12 -105 -30 -168
-34 l-45 -3 0 250 0 250 85 11 c117 15 115 15 128 2z m-1218 -8 c47 -6 95 -13
108 -15 l22 -5 -2 -238 -3 -237 -55 3 c-30 2 -82 8 -115 15 l-60 12 -3 225
c-1 123 0 230 2 237 6 16 1 15 106 3z m874 -16 c14 -5 16 -37 16 -254 l0 -249
-42 -6 c-24 -3 -81 -5 -128 -3 l-85 3 0 250 0 250 105 6 c58 3 108 6 112 7 3
1 13 -1 22 -4z m-366 -20 c16 -5 18 -469 1 -480 -13 -8 -189 -6 -236 2 l-33 6
0 237 c0 131 3 240 6 244 6 6 238 -1 262 -9z m-2338 -271 c40 -200 93 -359
171 -515 l38 -76 -22 -14 c-12 -8 -366 -196 -787 -419 -545 -288 -774 -414
-798 -439 -54 -57 -155 -204 -259 -380 -101 -170 -138 -221 -256 -352 -105
-117 -207 -157 -270 -108 -50 39 -74 112 -87 260 -15 179 -45 398 -65 487 -20
86 -10 75 -312 362 -234 223 -259 257 -250 337 3 30 15 58 34 82 40 49 152 81
313 89 109 5 123 4 265 -32 118 -30 176 -39 270 -42 220 -9 337 25 830 243
194 86 807 391 1030 512 61 33 118 61 127 61 12 1 19 -13 28 -56z m5616 -319
c434 -202 829 -380 878 -396 170 -55 325 -55 546 3 167 44 300 45 435 5 214
-64 284 -136 226 -233 -33 -53 -150 -171 -286 -286 -200 -170 -254 -225 -265
-268 -6 -20 -19 -138 -30 -262 -30 -346 -65 -477 -142 -542 -40 -34 -78 -30
-151 17 -66 42 -203 160 -240 207 -16 20 -66 110 -112 201 -100 199 -158 283
-273 396 l-87 86 -760 395 c-418 217 -763 398 -768 402 -4 4 19 63 52 132 69
145 100 234 131 379 28 135 27 130 43 130 8 0 369 -165 803 -366z"/>
<path d="M4915 7700 c-482 -62 -679 -94 -759 -124 -201 -72 -351 -232 -401
-426 -21 -82 -16 -242 10 -315 21 -60 208 -514 234 -570 29 -62 145 -199 223
-265 174 -147 427 -224 608 -186 117 24 211 76 300 165 81 80 249 286 353 434
153 216 301 484 328 597 19 78 17 260 -4 340 -45 169 -147 306 -272 365 -95
45 -180 43 -620 -15z"/>
<path d="M7322 7731 c-189 -65 -315 -263 -329 -516 -8 -148 8 -224 77 -363
106 -216 245 -429 441 -672 152 -190 235 -267 341 -319 141 -69 252 -76 432
-25 154 43 261 109 382 235 101 106 147 173 182 264 17 44 54 134 82 200 123
288 149 370 150 470 0 272 -201 521 -476 589 -82 21 -352 61 -637 96 -133 16
-292 37 -353 45 -144 20 -227 19 -292 -4z"/>
<path d="M6192 6080 c-168 -136 -281 -279 -377 -475 -93 -188 -124 -311 -143
-565 -22 -280 43 -559 145 -626 41 -26 101 -22 163 12 57 31 187 148 269 243
l49 57 7 722 c4 397 4 722 2 722 -3 0 -55 -40 -115 -90z"/>
<path d="M6503 5443 l6 -718 80 -92 c129 -147 260 -242 334 -243 171 -1 262
368 197 808 -24 164 -44 230 -114 378 -101 211 -238 384 -412 520 -45 35 -85
64 -89 64 -4 0 -5 -323 -2 -717z"/>
</g>
</svg>
